<?xml version="1.0" encoding="utf-8"?>
<!-- Generator: Adobe Illustrator 21.1.0, SVG Export Plug-In . SVG Version: 6.00 Build 0)  -->
<svg version="1.1" id="Capa_1" xmlns="http://www.w3.org/2000/svg" xmlns:xlink="http://www.w3.org/1999/xlink" x="0px" y="0px"
	 viewBox="0 0 445.2 445.2" style="enable-background:new 0 0 445.2 445.2;" xml:space="preserve">
<path d="M254.4,31.8C149,31.8,63.6,117.2,63.6,222.6H0l82.5,82.5l1.5,3l85.6-85.4H106c0-82,66.4-148.4,148.4-148.4
	s148.4,66.4,148.4,148.4S336.4,371,254.4,371c-40.9,0-78-16.7-104.7-43.7l-30.1,30.1c34.6,34.6,82,56,134.8,56
	c105.4,0,190.8-85.4,190.8-190.8S359.8,31.8,254.4,31.8z M233.2,137.8v106l90.7,53.8l15.3-25.7L265,227.9v-90.1H233.2z"/>
</svg>
