<?xml version="1.0" encoding="utf-8"?>
<!-- Generator: Adobe Illustrator 21.1.0, SVG Export Plug-In . SVG Version: 6.00 Build 0)  -->
<svg version="1.1" id="Layer_1" xmlns="http://www.w3.org/2000/svg" xmlns:xlink="http://www.w3.org/1999/xlink" x="0px" y="0px"
	 viewBox="0 0 1024 768" style="enable-background:new 0 0 1024 768;" xml:space="preserve">
<path d="M660.2,499.2c24.8-31.8,39.6-71.8,39.6-115.2c0-103.6-84.3-187.8-187.8-187.8S324.2,280.4,324.2,384
	c0,95.5,71.7,174.6,164.1,186.3v51.3c0,4.6,2.8,8.7,7.1,10.5c1.2,0.5,2.8,0.9,4.3,0.9c3,0,5.9-1.2,8-3.4l55.4-55.4l33.9,80.3
	c2.5,5.7,9.1,8.5,14.9,6l31.4-13.3c5.7-2.5,8.5-9.1,6-14.9l-35.7-84.5h67.8c4.6,0,8.7-2.8,10.5-7.1c1.8-4.1,0.9-9.1-2.5-12.3
	L660.2,499.2z M638,475c-1.5-0.8-2.9-1.7-4.4-2.5l-23.8-23.8c3.5-16.9,5.7-35,6.3-54h51.1C665.1,424.6,654.6,452.1,638,475z
	 M591.1,430.1l-35.4-35.4h38.7C594,406.9,592.9,418.8,591.1,430.1z M667.1,373.2H616c-0.8-25.7-4.4-49.8-10.4-71.3
	c10.4-3.7,20.2-8,29.3-13C653.3,312.6,664.9,341.6,667.1,373.2z M620.2,272.4c-6.6,3.4-13.7,6.4-21.1,9
	c-5.2-13.8-11.4-26.2-18.4-36.9C595.3,251.8,608.6,261.2,620.2,272.4z M522.8,228.9c5.3,0.4,10.5,1,15.6,1.9
	c15.9,10.4,29.8,30.6,39.8,57c-17.4,4.3-36.1,6.9-55.5,7.5V228.9z M584.9,308.2c5.4,19.7,8.8,41.8,9.6,65h-60.3l-11.4-11.4v-45
	C544.4,316.1,565.4,313.2,584.9,308.2z M488.3,446.7c-15.8,1.4-31.2,4-45.7,7.8c-4.6-18.3-7.5-38.5-8.3-59.7h53.9V446.7z
	 M499.6,343.3c-1.4,0-3,0.4-4.3,0.9c-4.3,1.8-7.1,5.9-7.1,10.5v18.6h-53.9c0.8-23.2,4.2-45.3,9.6-64.9c18,4.6,37.3,7.4,57.3,8.3
	v26.8C500.7,343.3,500.2,343.3,499.6,343.3z M492,229.8c3.1-0.4,6.2-0.7,9.3-0.9V295c-17.7-0.8-34.8-3.3-50.7-7.2
	C460.9,260.6,475.4,239.9,492,229.8z M450.3,241.3c-8,11.4-14.9,25-20.6,40.2c-8.6-3.1-16.7-6.6-24.2-10.6
	C418.5,258.6,433.7,248.5,450.3,241.3z M390.5,287.1c10,5.7,20.9,10.7,32.6,14.9c-5.9,21.6-9.6,45.6-10.3,71.3h-55.9
	C359.1,340.8,371.3,311.1,390.5,287.1z M356.9,394.8h55.9c0.7,23.6,3.9,45.9,9,66.1c-12.4,4.5-24,9.9-34.3,16.1
	C370,453.8,359,425.5,356.9,394.8z M401.8,493.6c8-4.6,16.8-8.6,26.2-12.1c6,17.3,13.6,32.6,22.5,45.3
	C432.2,518.9,415.7,507.6,401.8,493.6z M448.8,475.1c12.5-3.2,25.8-5.5,39.5-6.8v67.3C472.3,524.1,458.5,502.6,448.8,475.1z"/>
</svg>
